<mxfile host="app.diagrams.net" modified="2023-05-25T15:07:57.911Z" agent="Mozilla/5.0 (Windows NT 10.0; Win64; x64) AppleWebKit/537.36 (KHTML, like Gecko) Chrome/113.0.0.0 Safari/537.36" etag="URR_fqX2JdHnXFfZmZkj" version="21.3.4" type="github">
  <diagram name="Page-1" id="teJ1J6S0vPOMUrXMU4HP">
    <mxGraphModel dx="1434" dy="798" grid="0" gridSize="10" guides="1" tooltips="1" connect="1" arrows="1" fold="1" page="1" pageScale="1" pageWidth="850" pageHeight="1100" math="0" shadow="0">
      <root>
        <mxCell id="0" />
        <mxCell id="1" parent="0" />
        <mxCell id="BP_yEFKgDdB7-H9SE_CB-1" value="" style="endArrow=none;html=1;rounded=0;strokeColor=#000000;strokeWidth=3;" edge="1" parent="1">
          <mxGeometry width="50" height="50" relative="1" as="geometry">
            <mxPoint x="120" y="248" as="sourcePoint" />
            <mxPoint x="680" y="248" as="targetPoint" />
          </mxGeometry>
        </mxCell>
        <mxCell id="BP_yEFKgDdB7-H9SE_CB-2" value="" style="endArrow=none;html=1;rounded=0;strokeWidth=3;" edge="1" parent="1">
          <mxGeometry width="50" height="50" relative="1" as="geometry">
            <mxPoint x="400" y="428" as="sourcePoint" />
            <mxPoint x="400" y="68" as="targetPoint" />
          </mxGeometry>
        </mxCell>
        <mxCell id="BP_yEFKgDdB7-H9SE_CB-3" value="协作型文化" style="text;strokeColor=none;fillColor=none;html=1;fontSize=24;fontStyle=1;verticalAlign=middle;align=center;fontColor=#6666FF;" vertex="1" parent="1">
          <mxGeometry x="180" y="128" width="160" height="40" as="geometry" />
        </mxCell>
        <mxCell id="BP_yEFKgDdB7-H9SE_CB-4" value="培养型文化" style="text;strokeColor=none;fillColor=none;html=1;fontSize=24;fontStyle=1;verticalAlign=middle;align=center;fontColor=#6666FF;" vertex="1" parent="1">
          <mxGeometry x="180" y="328" width="160" height="40" as="geometry" />
        </mxCell>
        <mxCell id="BP_yEFKgDdB7-H9SE_CB-5" value="胜任型文化" style="text;strokeColor=none;fillColor=none;html=1;fontSize=24;fontStyle=1;verticalAlign=middle;align=center;fontColor=#6666FF;" vertex="1" parent="1">
          <mxGeometry x="463" y="328" width="160" height="40" as="geometry" />
        </mxCell>
        <mxCell id="BP_yEFKgDdB7-H9SE_CB-6" value="控制型文化" style="text;strokeColor=none;fillColor=none;html=1;fontSize=24;fontStyle=1;verticalAlign=middle;align=center;fontColor=#6666FF;" vertex="1" parent="1">
          <mxGeometry x="463" y="128" width="160" height="40" as="geometry" />
        </mxCell>
        <mxCell id="BP_yEFKgDdB7-H9SE_CB-7" value="人性化" style="text;strokeColor=none;fillColor=none;html=1;fontSize=24;fontStyle=0;verticalAlign=middle;align=center;" vertex="1" parent="1">
          <mxGeometry x="20" y="228" width="100" height="40" as="geometry" />
        </mxCell>
        <mxCell id="BP_yEFKgDdB7-H9SE_CB-8" value="非人性化" style="text;strokeColor=none;fillColor=none;html=1;fontSize=24;fontStyle=0;verticalAlign=middle;align=center;" vertex="1" parent="1">
          <mxGeometry x="690" y="228" width="100" height="40" as="geometry" />
        </mxCell>
        <mxCell id="BP_yEFKgDdB7-H9SE_CB-9" value="确定性" style="text;strokeColor=none;fillColor=none;html=1;fontSize=24;fontStyle=0;verticalAlign=middle;align=center;" vertex="1" parent="1">
          <mxGeometry x="350" y="20" width="100" height="40" as="geometry" />
        </mxCell>
        <mxCell id="BP_yEFKgDdB7-H9SE_CB-10" value="可能性" style="text;strokeColor=none;fillColor=none;html=1;fontSize=24;fontStyle=0;verticalAlign=middle;align=center;" vertex="1" parent="1">
          <mxGeometry x="350" y="438" width="100" height="40" as="geometry" />
        </mxCell>
        <mxCell id="BP_yEFKgDdB7-H9SE_CB-11" value="" style="verticalLabelPosition=bottom;verticalAlign=top;html=1;shape=mxgraph.basic.tick;fillColor=#000000;" vertex="1" parent="1">
          <mxGeometry x="150" y="128" width="40" height="40" as="geometry" />
        </mxCell>
        <mxCell id="BP_yEFKgDdB7-H9SE_CB-12" value="" style="verticalLabelPosition=bottom;verticalAlign=top;html=1;shape=mxgraph.basic.tick;fillColor=#000000;" vertex="1" parent="1">
          <mxGeometry x="150" y="328" width="40" height="40" as="geometry" />
        </mxCell>
        <mxCell id="BP_yEFKgDdB7-H9SE_CB-13" value="" style="endArrow=blockThin;html=1;rounded=0;strokeColor=#000000;strokeWidth=3;startArrow=blockThin;startFill=1;endFill=1;" edge="1" parent="1">
          <mxGeometry width="50" height="50" relative="1" as="geometry">
            <mxPoint x="160" y="780" as="sourcePoint" />
            <mxPoint x="680" y="780" as="targetPoint" />
          </mxGeometry>
        </mxCell>
        <mxCell id="BP_yEFKgDdB7-H9SE_CB-14" value="" style="endArrow=blockThin;html=1;rounded=0;strokeWidth=3;startArrow=blockThin;startFill=1;endFill=1;" edge="1" parent="1">
          <mxGeometry width="50" height="50" relative="1" as="geometry">
            <mxPoint x="420" y="1020" as="sourcePoint" />
            <mxPoint x="420" y="540" as="targetPoint" />
          </mxGeometry>
        </mxCell>
        <mxCell id="BP_yEFKgDdB7-H9SE_CB-16" value="未知的未知" style="text;strokeColor=none;fillColor=none;html=1;fontSize=24;fontStyle=0;verticalAlign=middle;align=center;fontColor=#6666FF;" vertex="1" parent="1">
          <mxGeometry x="180" y="950" width="160" height="40" as="geometry" />
        </mxCell>
        <mxCell id="BP_yEFKgDdB7-H9SE_CB-18" value="已知的已知" style="text;strokeColor=none;fillColor=none;html=1;fontSize=24;fontStyle=0;verticalAlign=middle;align=center;fontColor=#6666FF;" vertex="1" parent="1">
          <mxGeometry x="495" y="560" width="160" height="40" as="geometry" />
        </mxCell>
        <mxCell id="BP_yEFKgDdB7-H9SE_CB-19" value="未知的挑战" style="text;strokeColor=none;fillColor=none;html=1;fontSize=24;fontStyle=0;verticalAlign=middle;align=center;" vertex="1" parent="1">
          <mxGeometry x="30" y="758" width="120" height="40" as="geometry" />
        </mxCell>
        <mxCell id="BP_yEFKgDdB7-H9SE_CB-20" value="已知的挑战" style="text;strokeColor=none;fillColor=none;html=1;fontSize=24;fontStyle=0;verticalAlign=middle;align=center;" vertex="1" parent="1">
          <mxGeometry x="690" y="760" width="130" height="40" as="geometry" />
        </mxCell>
        <mxCell id="BP_yEFKgDdB7-H9SE_CB-21" value="现成的答案" style="text;strokeColor=none;fillColor=none;html=1;fontSize=24;fontStyle=0;verticalAlign=middle;align=center;" vertex="1" parent="1">
          <mxGeometry x="355" y="490" width="140" height="40" as="geometry" />
        </mxCell>
        <mxCell id="BP_yEFKgDdB7-H9SE_CB-22" value="待确定的答案" style="text;strokeColor=none;fillColor=none;html=1;fontSize=24;fontStyle=0;verticalAlign=middle;align=center;" vertex="1" parent="1">
          <mxGeometry x="340" y="1030" width="170" height="40" as="geometry" />
        </mxCell>
        <mxCell id="BP_yEFKgDdB7-H9SE_CB-26" value="" style="ellipse;whiteSpace=wrap;html=1;aspect=fixed;fillColor=#FFCCE6;" vertex="1" parent="1">
          <mxGeometry x="540" y="610" width="60" height="60" as="geometry" />
        </mxCell>
        <mxCell id="BP_yEFKgDdB7-H9SE_CB-27" value="" style="ellipse;whiteSpace=wrap;html=1;aspect=fixed;fillColor=#FFCCE6;" vertex="1" parent="1">
          <mxGeometry x="540" y="880" width="60" height="60" as="geometry" />
        </mxCell>
        <mxCell id="BP_yEFKgDdB7-H9SE_CB-29" value="已知的未知" style="text;strokeColor=none;fillColor=none;html=1;fontSize=24;fontStyle=0;verticalAlign=middle;align=center;fontColor=#6666FF;" vertex="1" parent="1">
          <mxGeometry x="490" y="950" width="160" height="40" as="geometry" />
        </mxCell>
        <mxCell id="BP_yEFKgDdB7-H9SE_CB-30" value="" style="ellipse;whiteSpace=wrap;html=1;aspect=fixed;" vertex="1" parent="1">
          <mxGeometry x="230" y="880" width="60" height="60" as="geometry" />
        </mxCell>
        <mxCell id="BP_yEFKgDdB7-H9SE_CB-31" value="" style="ellipse;whiteSpace=wrap;html=1;aspect=fixed;fillColor=#FFCCE6;" vertex="1" parent="1">
          <mxGeometry x="230" y="880" width="60" height="60" as="geometry" />
        </mxCell>
        <mxCell id="BP_yEFKgDdB7-H9SE_CB-32" value="III" style="text;strokeColor=none;fillColor=none;html=1;fontSize=24;fontStyle=0;verticalAlign=middle;align=center;" vertex="1" parent="1">
          <mxGeometry x="322" y="798" width="100" height="40" as="geometry" />
        </mxCell>
        <mxCell id="BP_yEFKgDdB7-H9SE_CB-33" value="II" style="text;strokeColor=none;fillColor=none;html=1;fontSize=24;fontStyle=0;verticalAlign=middle;align=center;" vertex="1" parent="1">
          <mxGeometry x="415" y="798" width="100" height="40" as="geometry" />
        </mxCell>
        <mxCell id="BP_yEFKgDdB7-H9SE_CB-34" value="I" style="text;strokeColor=none;fillColor=none;html=1;fontSize=24;fontStyle=0;verticalAlign=middle;align=center;" vertex="1" parent="1">
          <mxGeometry x="415" y="720" width="100" height="40" as="geometry" />
        </mxCell>
        <mxCell id="BP_yEFKgDdB7-H9SE_CB-35" value="" style="endArrow=classic;html=1;rounded=0;exitX=1;exitY=0.5;exitDx=0;exitDy=0;entryX=0;entryY=0.5;entryDx=0;entryDy=0;dashed=1;" edge="1" parent="1" source="BP_yEFKgDdB7-H9SE_CB-31" target="BP_yEFKgDdB7-H9SE_CB-27">
          <mxGeometry width="50" height="50" relative="1" as="geometry">
            <mxPoint x="320" y="910" as="sourcePoint" />
            <mxPoint x="370" y="860" as="targetPoint" />
          </mxGeometry>
        </mxCell>
        <mxCell id="BP_yEFKgDdB7-H9SE_CB-36" value="" style="endArrow=classic;html=1;rounded=0;exitX=0.5;exitY=0;exitDx=0;exitDy=0;entryX=0.5;entryY=1;entryDx=0;entryDy=0;dashed=1;" edge="1" parent="1" source="BP_yEFKgDdB7-H9SE_CB-27" target="BP_yEFKgDdB7-H9SE_CB-26">
          <mxGeometry width="50" height="50" relative="1" as="geometry">
            <mxPoint x="300" y="920" as="sourcePoint" />
            <mxPoint x="550" y="920" as="targetPoint" />
          </mxGeometry>
        </mxCell>
      </root>
    </mxGraphModel>
  </diagram>
</mxfile>
